<svg xmlns="http://www.w3.org/2000/svg" width="196" height="154" viewBox="0 0 196 154">
  <g id="Group_2" data-name="Group 2" opacity="0.5">
    <circle id="Ellipse_5" data-name="Ellipse 5" cx="3.5" cy="3.5" r="3.5" fill="#f4f4f4"/>
    <circle id="Ellipse_15" data-name="Ellipse 15" cx="3.5" cy="3.5" r="3.5" transform="translate(0 21)" fill="#f4f4f4"/>
    <circle id="Ellipse_25" data-name="Ellipse 25" cx="3.5" cy="3.5" r="3.5" transform="translate(0 42)" fill="#f4f4f4"/>
    <circle id="Ellipse_35" data-name="Ellipse 35" cx="3.5" cy="3.5" r="3.5" transform="translate(0 63)" fill="#f4f4f4"/>
    <circle id="Ellipse_45" data-name="Ellipse 45" cx="3.5" cy="3.5" r="3.5" transform="translate(0 84)" fill="#f4f4f4"/>
    <circle id="Ellipse_55" data-name="Ellipse 55" cx="3.5" cy="3.5" r="3.5" transform="translate(0 105)" fill="#f4f4f4"/>
    <circle id="Ellipse_65" data-name="Ellipse 65" cx="3.5" cy="3.5" r="3.5" transform="translate(0 126)" fill="#f4f4f4"/>
    <circle id="Ellipse_75" data-name="Ellipse 75" cx="3.5" cy="3.5" r="3.5" transform="translate(0 147)" fill="#f4f4f4"/>
    <circle id="Ellipse_6" data-name="Ellipse 6" cx="3.5" cy="3.5" r="3.5" transform="translate(21)" fill="#f4f4f4"/>
    <circle id="Ellipse_16" data-name="Ellipse 16" cx="3.5" cy="3.5" r="3.5" transform="translate(21 21)" fill="#f4f4f4"/>
    <circle id="Ellipse_26" data-name="Ellipse 26" cx="3.5" cy="3.5" r="3.5" transform="translate(21 42)" fill="#f4f4f4"/>
    <circle id="Ellipse_36" data-name="Ellipse 36" cx="3.5" cy="3.5" r="3.5" transform="translate(21 63)" fill="#f4f4f4"/>
    <circle id="Ellipse_46" data-name="Ellipse 46" cx="3.5" cy="3.5" r="3.5" transform="translate(21 84)" fill="#f4f4f4"/>
    <circle id="Ellipse_56" data-name="Ellipse 56" cx="3.5" cy="3.5" r="3.5" transform="translate(21 105)" fill="#f4f4f4"/>
    <circle id="Ellipse_66" data-name="Ellipse 66" cx="3.5" cy="3.5" r="3.5" transform="translate(21 126)" fill="#f4f4f4"/>
    <circle id="Ellipse_76" data-name="Ellipse 76" cx="3.5" cy="3.5" r="3.5" transform="translate(21 147)" fill="#f4f4f4"/>
    <circle id="Ellipse_7" data-name="Ellipse 7" cx="3.5" cy="3.5" r="3.5" transform="translate(42)" fill="#f4f4f4"/>
    <circle id="Ellipse_17" data-name="Ellipse 17" cx="3.5" cy="3.5" r="3.5" transform="translate(42 21)" fill="#f4f4f4"/>
    <circle id="Ellipse_27" data-name="Ellipse 27" cx="3.5" cy="3.5" r="3.5" transform="translate(42 42)" fill="#f4f4f4"/>
    <circle id="Ellipse_37" data-name="Ellipse 37" cx="3.5" cy="3.5" r="3.5" transform="translate(42 63)" fill="#f4f4f4"/>
    <circle id="Ellipse_47" data-name="Ellipse 47" cx="3.5" cy="3.5" r="3.5" transform="translate(42 84)" fill="#f4f4f4"/>
    <circle id="Ellipse_57" data-name="Ellipse 57" cx="3.5" cy="3.5" r="3.5" transform="translate(42 105)" fill="#f4f4f4"/>
    <circle id="Ellipse_67" data-name="Ellipse 67" cx="3.5" cy="3.5" r="3.5" transform="translate(42 126)" fill="#f4f4f4"/>
    <circle id="Ellipse_77" data-name="Ellipse 77" cx="3.5" cy="3.5" r="3.5" transform="translate(42 147)" fill="#f4f4f4"/>
    <circle id="Ellipse_8" data-name="Ellipse 8" cx="3.5" cy="3.5" r="3.5" transform="translate(63)" fill="#f4f4f4"/>
    <circle id="Ellipse_18" data-name="Ellipse 18" cx="3.5" cy="3.5" r="3.5" transform="translate(63 21)" fill="#f4f4f4"/>
    <circle id="Ellipse_28" data-name="Ellipse 28" cx="3.5" cy="3.5" r="3.5" transform="translate(63 42)" fill="#f4f4f4"/>
    <circle id="Ellipse_38" data-name="Ellipse 38" cx="3.5" cy="3.5" r="3.5" transform="translate(63 63)" fill="#f4f4f4"/>
    <circle id="Ellipse_48" data-name="Ellipse 48" cx="3.5" cy="3.5" r="3.5" transform="translate(63 84)" fill="#f4f4f4"/>
    <circle id="Ellipse_58" data-name="Ellipse 58" cx="3.5" cy="3.5" r="3.5" transform="translate(63 105)" fill="#f4f4f4"/>
    <circle id="Ellipse_68" data-name="Ellipse 68" cx="3.5" cy="3.5" r="3.5" transform="translate(63 126)" fill="#f4f4f4"/>
    <circle id="Ellipse_78" data-name="Ellipse 78" cx="3.5" cy="3.5" r="3.5" transform="translate(63 147)" fill="#f4f4f4"/>
    <circle id="Ellipse_9" data-name="Ellipse 9" cx="3.5" cy="3.5" r="3.5" transform="translate(84)" fill="#f4f4f4"/>
    <circle id="Ellipse_19" data-name="Ellipse 19" cx="3.5" cy="3.5" r="3.5" transform="translate(84 21)" fill="#f4f4f4"/>
    <circle id="Ellipse_29" data-name="Ellipse 29" cx="3.5" cy="3.5" r="3.5" transform="translate(84 42)" fill="#f4f4f4"/>
    <circle id="Ellipse_39" data-name="Ellipse 39" cx="3.5" cy="3.5" r="3.5" transform="translate(84 63)" fill="#f4f4f4"/>
    <circle id="Ellipse_49" data-name="Ellipse 49" cx="3.5" cy="3.5" r="3.5" transform="translate(84 84)" fill="#f4f4f4"/>
    <circle id="Ellipse_59" data-name="Ellipse 59" cx="3.5" cy="3.5" r="3.5" transform="translate(84 105)" fill="#f4f4f4"/>
    <circle id="Ellipse_69" data-name="Ellipse 69" cx="3.5" cy="3.5" r="3.5" transform="translate(84 126)" fill="#f4f4f4"/>
    <circle id="Ellipse_79" data-name="Ellipse 79" cx="3.5" cy="3.5" r="3.5" transform="translate(84 147)" fill="#f4f4f4"/>
    <circle id="Ellipse_10" data-name="Ellipse 10" cx="3.5" cy="3.5" r="3.5" transform="translate(105)" fill="#f4f4f4"/>
    <circle id="Ellipse_20" data-name="Ellipse 20" cx="3.5" cy="3.5" r="3.5" transform="translate(105 21)" fill="#f4f4f4"/>
    <circle id="Ellipse_30" data-name="Ellipse 30" cx="3.5" cy="3.5" r="3.5" transform="translate(105 42)" fill="#f4f4f4"/>
    <circle id="Ellipse_40" data-name="Ellipse 40" cx="3.5" cy="3.5" r="3.5" transform="translate(105 63)" fill="#f4f4f4"/>
    <circle id="Ellipse_50" data-name="Ellipse 50" cx="3.5" cy="3.5" r="3.5" transform="translate(105 84)" fill="#f4f4f4"/>
    <circle id="Ellipse_60" data-name="Ellipse 60" cx="3.5" cy="3.5" r="3.5" transform="translate(105 105)" fill="#f4f4f4"/>
    <circle id="Ellipse_70" data-name="Ellipse 70" cx="3.5" cy="3.5" r="3.5" transform="translate(105 126)" fill="#f4f4f4"/>
    <circle id="Ellipse_80" data-name="Ellipse 80" cx="3.5" cy="3.5" r="3.5" transform="translate(105 147)" fill="#f4f4f4"/>
    <circle id="Ellipse_11" data-name="Ellipse 11" cx="3.5" cy="3.5" r="3.5" transform="translate(126)" fill="#f4f4f4"/>
    <circle id="Ellipse_21" data-name="Ellipse 21" cx="3.5" cy="3.5" r="3.5" transform="translate(126 21)" fill="#f4f4f4"/>
    <circle id="Ellipse_31" data-name="Ellipse 31" cx="3.5" cy="3.5" r="3.5" transform="translate(126 42)" fill="#f4f4f4"/>
    <circle id="Ellipse_41" data-name="Ellipse 41" cx="3.5" cy="3.5" r="3.5" transform="translate(126 63)" fill="#f4f4f4"/>
    <circle id="Ellipse_51" data-name="Ellipse 51" cx="3.5" cy="3.5" r="3.5" transform="translate(126 84)" fill="#f4f4f4"/>
    <circle id="Ellipse_61" data-name="Ellipse 61" cx="3.5" cy="3.5" r="3.5" transform="translate(126 105)" fill="#f4f4f4"/>
    <circle id="Ellipse_71" data-name="Ellipse 71" cx="3.5" cy="3.5" r="3.5" transform="translate(126 126)" fill="#f4f4f4"/>
    <circle id="Ellipse_81" data-name="Ellipse 81" cx="3.5" cy="3.5" r="3.5" transform="translate(126 147)" fill="#f4f4f4"/>
    <circle id="Ellipse_12" data-name="Ellipse 12" cx="3.5" cy="3.5" r="3.5" transform="translate(147)" fill="#f4f4f4"/>
    <circle id="Ellipse_22" data-name="Ellipse 22" cx="3.5" cy="3.5" r="3.5" transform="translate(147 21)" fill="#f4f4f4"/>
    <circle id="Ellipse_32" data-name="Ellipse 32" cx="3.5" cy="3.5" r="3.5" transform="translate(147 42)" fill="#f4f4f4"/>
    <circle id="Ellipse_42" data-name="Ellipse 42" cx="3.5" cy="3.5" r="3.5" transform="translate(147 63)" fill="#f4f4f4"/>
    <circle id="Ellipse_52" data-name="Ellipse 52" cx="3.5" cy="3.5" r="3.5" transform="translate(147 84)" fill="#f4f4f4"/>
    <circle id="Ellipse_62" data-name="Ellipse 62" cx="3.5" cy="3.5" r="3.5" transform="translate(147 105)" fill="#f4f4f4"/>
    <circle id="Ellipse_72" data-name="Ellipse 72" cx="3.5" cy="3.5" r="3.5" transform="translate(147 126)" fill="#f4f4f4"/>
    <circle id="Ellipse_82" data-name="Ellipse 82" cx="3.5" cy="3.5" r="3.5" transform="translate(147 147)" fill="#f4f4f4"/>
    <circle id="Ellipse_13" data-name="Ellipse 13" cx="3.5" cy="3.5" r="3.5" transform="translate(168)" fill="#f4f4f4"/>
    <circle id="Ellipse_23" data-name="Ellipse 23" cx="3.5" cy="3.5" r="3.5" transform="translate(168 21)" fill="#f4f4f4"/>
    <circle id="Ellipse_33" data-name="Ellipse 33" cx="3.5" cy="3.5" r="3.5" transform="translate(168 42)" fill="#f4f4f4"/>
    <circle id="Ellipse_43" data-name="Ellipse 43" cx="3.5" cy="3.5" r="3.5" transform="translate(168 63)" fill="#f4f4f4"/>
    <circle id="Ellipse_53" data-name="Ellipse 53" cx="3.5" cy="3.5" r="3.5" transform="translate(168 84)" fill="#f4f4f4"/>
    <circle id="Ellipse_63" data-name="Ellipse 63" cx="3.5" cy="3.5" r="3.5" transform="translate(168 105)" fill="#f4f4f4"/>
    <circle id="Ellipse_73" data-name="Ellipse 73" cx="3.5" cy="3.5" r="3.5" transform="translate(168 126)" fill="#f4f4f4"/>
    <circle id="Ellipse_83" data-name="Ellipse 83" cx="3.5" cy="3.5" r="3.5" transform="translate(168 147)" fill="#f4f4f4"/>
    <circle id="Ellipse_14" data-name="Ellipse 14" cx="3.5" cy="3.5" r="3.5" transform="translate(189)" fill="#f4f4f4"/>
    <circle id="Ellipse_24" data-name="Ellipse 24" cx="3.5" cy="3.5" r="3.5" transform="translate(189 21)" fill="#f4f4f4"/>
    <circle id="Ellipse_34" data-name="Ellipse 34" cx="3.5" cy="3.5" r="3.5" transform="translate(189 42)" fill="#f4f4f4"/>
    <circle id="Ellipse_44" data-name="Ellipse 44" cx="3.5" cy="3.5" r="3.5" transform="translate(189 63)" fill="#f4f4f4"/>
    <circle id="Ellipse_54" data-name="Ellipse 54" cx="3.5" cy="3.5" r="3.5" transform="translate(189 84)" fill="#f4f4f4"/>
    <circle id="Ellipse_64" data-name="Ellipse 64" cx="3.5" cy="3.5" r="3.5" transform="translate(189 105)" fill="#f4f4f4"/>
    <circle id="Ellipse_74" data-name="Ellipse 74" cx="3.5" cy="3.5" r="3.5" transform="translate(189 126)" fill="#f4f4f4"/>
    <circle id="Ellipse_84" data-name="Ellipse 84" cx="3.5" cy="3.5" r="3.5" transform="translate(189 147)" fill="#f4f4f4"/>
  </g>
</svg>
